<svg width="800" height="600" xmlns="http://www.w3.org/2000/svg">
  <defs>
    <linearGradient id="bgGradient" x1="0%" y1="0%" x2="100%" y2="100%">
      <stop offset="0%" style="stop-color:#667eea;stop-opacity:1" />
      <stop offset="100%" style="stop-color:#764ba2;stop-opacity:1" />
    </linearGradient>
  </defs>
  
  <!-- Background -->
  <rect width="800" height="600" fill="url(#bgGradient)"/>
  
  <!-- Header -->
  <rect x="0" y="0" width="800" height="80" fill="#ffffff" opacity="0.95"/>
  <text x="40" y="50" font-family="Arial, sans-serif" font-size="24" font-weight="bold" fill="#333">E-Shop</text>
  <circle cx="720" cy="40" r="20" fill="#ff6b00"/>
  <text x="710" y="47" font-family="Arial, sans-serif" font-size="16" fill="#fff">🛒</text>
  
  <!-- Product Cards -->
  <rect x="50" y="120" width="200" height="200" rx="10" fill="#ffffff" opacity="0.9"/>
  <rect x="60" y="130" width="180" height="120" fill="#e0e0e0"/>
  <text x="70" y="280" font-family="Arial, sans-serif" font-size="18" font-weight="bold" fill="#333">Product 1</text>
  <text x="70" y="300" font-family="Arial, sans-serif" font-size="16" fill="#ff6b00">$29.99</text>
  
  <rect x="300" y="120" width="200" height="200" rx="10" fill="#ffffff" opacity="0.9"/>
  <rect x="310" y="130" width="180" height="120" fill="#e0e0e0"/>
  <text x="320" y="280" font-family="Arial, sans-serif" font-size="18" font-weight="bold" fill="#333">Product 2</text>
  <text x="320" y="300" font-family="Arial, sans-serif" font-size="16" fill="#ff6b00">$39.99</text>
  
  <rect x="550" y="120" width="200" height="200" rx="10" fill="#ffffff" opacity="0.9"/>
  <rect x="560" y="130" width="180" height="120" fill="#e0e0e0"/>
  <text x="570" y="280" font-family="Arial, sans-serif" font-size="18" font-weight="bold" fill="#333">Product 3</text>
  <text x="570" y="300" font-family="Arial, sans-serif" font-size="16" fill="#ff6b00">$49.99</text>
  
  <!-- Bottom Section -->
  <rect x="50" y="360" width="700" height="200" rx="10" fill="#ffffff" opacity="0.9"/>
  <text x="70" y="400" font-family="Arial, sans-serif" font-size="20" font-weight="bold" fill="#333">Featured Products</text>
  <rect x="70" y="420" width="150" height="100" fill="#f0f0f0"/>
  <rect x="240" y="420" width="150" height="100" fill="#f0f0f0"/>
  <rect x="410" y="420" width="150" height="100" fill="#f0f0f0"/>
  <rect x="580" y="420" width="150" height="100" fill="#f0f0f0"/>
</svg>
