<svg width="800" height="600" xmlns="http://www.w3.org/2000/svg">
  <defs>
    <linearGradient id="uiGradient" x1="0%" y1="0%" x2="100%" y2="100%">
      <stop offset="0%" style="stop-color:#f093fb;stop-opacity:1" />
      <stop offset="100%" style="stop-color:#f5576c;stop-opacity:1" />
    </linearGradient>
  </defs>
  
  <!-- Background -->
  <rect width="800" height="600" fill="url(#uiGradient)"/>
  
  <!-- Mobile Frame -->
  <rect x="200" y="50" width="400" height="500" rx="30" fill="#ffffff" stroke="#333" stroke-width="3"/>
  <rect x="220" y="70" width="360" height="40" fill="#333"/>
  <circle cx="240" cy="90" r="8" fill="#ff6b00"/>
  <rect x="260" y="82" width="100" height="16" rx="8" fill="#666"/>
  
  <!-- App Content -->
  <rect x="220" y="120" width="360" height="80" fill="#f0f0f0" rx="10"/>
  <rect x="240" y="140" width="120" height="40" fill="#ff6b00" rx="5"/>
  <text x="300" y="165" font-family="Arial, sans-serif" font-size="16" fill="#333">Welcome</text>
  
  <rect x="220" y="220" width="360" height="60" fill="#ffffff" rx="10" stroke="#e0e0e0" stroke-width="2"/>
  <circle cx="250" cy="250" r="20" fill="#667eea"/>
  <text x="280" y="240" font-family="Arial, sans-serif" font-size="14" font-weight="bold" fill="#333">Card Item 1</text>
  <text x="280" y="260" font-family="Arial, sans-serif" font-size="12" fill="#666">Description text</text>
  
  <rect x="220" y="300" width="360" height="60" fill="#ffffff" rx="10" stroke="#e0e0e0" stroke-width="2"/>
  <circle cx="250" cy="330" r="20" fill="#764ba2"/>
  <text x="280" y="320" font-family="Arial, sans-serif" font-size="14" font-weight="bold" fill="#333">Card Item 2</text>
  <text x="280" y="340" font-family="Arial, sans-serif" font-size="12" fill="#666">Description text</text>
  
  <rect x="220" y="380" width="360" height="60" fill="#ffffff" rx="10" stroke="#e0e0e0" stroke-width="2"/>
  <circle cx="250" cy="410" r="20" fill="#f5576c"/>
  <text x="280" y="400" font-family="Arial, sans-serif" font-size="14" font-weight="bold" fill="#333">Card Item 3</text>
  <text x="280" y="420" font-family="Arial, sans-serif" font-size="12" fill="#666">Description text</text>
  
  <!-- Bottom Navigation -->
  <rect x="220" y="460" width="360" height="60" fill="#333" rx="10"/>
  <circle cx="280" cy="490" r="12" fill="#ff6b00"/>
  <circle cx="400" cy="490" r="8" fill="#666"/>
  <circle cx="520" cy="490" r="8" fill="#666"/>
</svg>
